# xmcd CD database file
#
# Track frame offsets:
#	150
#	19646
#	57961
#	75199
#	100069
#	118329
#	136565
#	163868
#	189082
#	217925
#	239774
#	258819
#	285668
#	306983
#	329153
#	345864
#
# Disc length: 4859 seconds
#
# Revision: 2
# Processed by: cddbd v1.4b41PL1 Copyright (c) Steve Scherf et al.
# Submitted via: Feurio! 1.50.2ß - http://www.feurio.com
#
DISCID=d612f910
DTITLE=Jamiroquai - Something Special
DYEAR=1900
DGENRE=
TTITLE0=Alright
TTITLE1=Blow Your Mind
TTITLE2=When You Gonna Learn
TTITLE3=Canned Heat
TTITLE4=Cosmic Girl
TTITLE5=Emergency on Planet Earth
TTITLE6=2 Young  2 Die
TTITLE7=Virtual Insanity
TTITLE8=Space Cowboy
TTITLE9=If I Like It I Do It
TTITLE10=Soul Education
TTITLE11=High Times
TTITLE12=Planet Home
TTITLE13=Do You Know Where You' re Comming From
TTITLE14=Falling
TTITLE15=Spend A Life Time
EXTD=
EXTT0=
EXTT1=
EXTT2=
EXTT3=
EXTT4=
EXTT5=
EXTT6=
EXTT7=
EXTT8=
EXTT9=
EXTT10=
EXTT11=
EXTT12=
EXTT13=
EXTT14=
EXTT15=
PLAYORDER=
